<svg width="62" height="38" viewBox="0 0 62 38" fill="none" xmlns="http://www.w3.org/2000/svg">
<g id="Vector-menu bars">
<path d="M62 34.4225C62 38.3637 48.1208 37.9905 31 37.9905C13.8792 37.9905 0 38.3637 0 34.4225C0 30.4813 13.8792 29.5164 31 29.5164C48.1208 29.5164 62 30.4813 62 34.4225Z" fill="white"/>
<path d="M62 20.4225C62 24.3637 48.1208 23.9905 31 23.9905C13.8792 23.9905 0 24.3637 0 20.4225C0 16.4813 13.8792 15.5164 31 15.5164C48.1208 15.5164 62 16.4813 62 20.4225Z" fill="white"/>
<path d="M62 5.42248C62 9.36365 48.1208 8.99054 31 8.99054C13.8792 8.99054 0 9.36365 0 5.42248C0 1.4813 13.8792 0.516384 31 0.516384C48.1208 0.516384 62 1.4813 62 5.42248Z" fill="white"/>
</g>
</svg>
